<svg id="visual" viewBox="0 0 900 450" width="900" height="450" xmlns="http://www.w3.org/2000/svg" xmlns:xlink="http://www.w3.org/1999/xlink" version="1.1"><rect x="0" y="0" width="900" height="450" fill="#fff"></rect><path d="M0 366L113 354L225 330L338 361L450 343L563 374L675 333L788 343L900 359L900 451L788 451L675 451L563 451L450 451L338 451L225 451L113 451L0 451Z" fill="#2f3926"></path><path d="M0 352L113 355L225 347L338 351L450 377L563 351L675 348L788 371L900 351L900 451L788 451L675 451L563 451L450 451L338 451L225 451L113 451L0 451Z" fill="#1e3531"></path><path d="M0 384L113 372L225 380L338 384L450 393L563 368L675 369L788 383L900 366L900 451L788 451L675 451L563 451L450 451L338 451L225 451L113 451L0 451Z" fill="#202e34"></path><path d="M0 408L113 385L225 415L338 392L450 402L563 392L675 391L788 389L900 397L900 451L788 451L675 451L563 451L450 451L338 451L225 451L113 451L0 451Z" fill="#202e34"></path><path d="M0 410L113 417L225 407L338 415L450 415L563 413L675 401L788 424L900 417L900 451L788 451L675 451L563 451L450 451L338 451L225 451L113 451L0 451Z" fill="#1e3531"></path><path d="M0 423L113 433L225 431L338 429L450 420L563 425L675 431L788 427L900 419L900 451L788 451L675 451L563 451L450 451L338 451L225 451L113 451L0 451Z" fill="#2f3926"></path></svg>